<mxfile host="app.diagrams.net" agent="Mozilla/5.0 (Macintosh; Intel Mac OS X 10_15_7) AppleWebKit/605.1.15 (KHTML, like Gecko) Version/18.0.1 Safari/605.1.15" version="24.8.6">
  <diagram name="第 1 页" id="XeFT9RAL0jmuDU49KzOn">
    <mxGraphModel dx="1197" dy="794" grid="1" gridSize="10" guides="1" tooltips="1" connect="1" arrows="1" fold="1" page="1" pageScale="1" pageWidth="827" pageHeight="1169" math="0" shadow="0">
      <root>
        <mxCell id="0" />
        <mxCell id="1" parent="0" />
        <mxCell id="E84nc0efOehVYlkrJF3X-14" value="" style="edgeStyle=orthogonalEdgeStyle;rounded=0;orthogonalLoop=1;jettySize=auto;html=1;labelBackgroundColor=none;strokeColor=#23445D;fontColor=default;" edge="1" parent="1" source="o90tf0dQoTygKEmvJ2A5-5" target="E84nc0efOehVYlkrJF3X-9">
          <mxGeometry relative="1" as="geometry" />
        </mxCell>
        <mxCell id="o90tf0dQoTygKEmvJ2A5-5" value="是否掃描到圖像" style="rhombus;whiteSpace=wrap;html=1;align=center;verticalAlign=middle;labelBackgroundColor=none;fillColor=#182E3E;strokeColor=#FFFFFF;fontColor=#FFFFFF;" parent="1" vertex="1">
          <mxGeometry x="270" y="380" width="140" height="105" as="geometry" />
        </mxCell>
        <mxCell id="o90tf0dQoTygKEmvJ2A5-18" value="下一關" style="rounded=0;whiteSpace=wrap;html=1;align=center;verticalAlign=middle;labelBackgroundColor=none;fillColor=#182E3E;strokeColor=#FFFFFF;fontColor=#FFFFFF;" parent="1" vertex="1">
          <mxGeometry x="280" y="710" width="120" height="40" as="geometry" />
        </mxCell>
        <mxCell id="E84nc0efOehVYlkrJF3X-23" value="" style="edgeStyle=orthogonalEdgeStyle;rounded=0;orthogonalLoop=1;jettySize=auto;html=1;labelBackgroundColor=none;strokeColor=#23445D;fontColor=default;" edge="1" parent="1" source="E84nc0efOehVYlkrJF3X-9" target="E84nc0efOehVYlkrJF3X-16">
          <mxGeometry relative="1" as="geometry" />
        </mxCell>
        <mxCell id="E84nc0efOehVYlkrJF3X-9" value="加分" style="rounded=0;whiteSpace=wrap;html=1;align=center;verticalAlign=middle;labelBackgroundColor=none;fillColor=#182E3E;strokeColor=#FFFFFF;fontColor=#FFFFFF;" vertex="1" parent="1">
          <mxGeometry x="280" y="510" width="120" height="40" as="geometry" />
        </mxCell>
        <mxCell id="E84nc0efOehVYlkrJF3X-24" value="" style="edgeStyle=orthogonalEdgeStyle;rounded=0;orthogonalLoop=1;jettySize=auto;html=1;labelBackgroundColor=none;strokeColor=#23445D;fontColor=default;" edge="1" parent="1" source="E84nc0efOehVYlkrJF3X-16" target="o90tf0dQoTygKEmvJ2A5-18">
          <mxGeometry relative="1" as="geometry" />
        </mxCell>
        <mxCell id="E84nc0efOehVYlkrJF3X-29" style="edgeStyle=orthogonalEdgeStyle;rounded=0;orthogonalLoop=1;jettySize=auto;html=1;labelBackgroundColor=none;strokeColor=#23445D;fontColor=default;" edge="1" parent="1" source="E84nc0efOehVYlkrJF3X-16">
          <mxGeometry relative="1" as="geometry">
            <mxPoint x="410" y="310" as="targetPoint" />
            <Array as="points">
              <mxPoint x="460" y="623" />
              <mxPoint x="460" y="310" />
            </Array>
          </mxGeometry>
        </mxCell>
        <mxCell id="E84nc0efOehVYlkrJF3X-34" value="否" style="edgeLabel;html=1;align=center;verticalAlign=middle;resizable=0;points=[];strokeColor=#FFFFFF;fontColor=#1A1A1A;fillColor=#182E3E;" vertex="1" connectable="0" parent="E84nc0efOehVYlkrJF3X-29">
          <mxGeometry x="-0.8777" y="-2" relative="1" as="geometry">
            <mxPoint x="1" as="offset" />
          </mxGeometry>
        </mxCell>
        <mxCell id="E84nc0efOehVYlkrJF3X-16" value="是否進入下一關" style="rhombus;whiteSpace=wrap;html=1;align=center;verticalAlign=middle;labelBackgroundColor=none;fillColor=#182E3E;strokeColor=#FFFFFF;fontColor=#FFFFFF;" vertex="1" parent="1">
          <mxGeometry x="270" y="570" width="140" height="105" as="geometry" />
        </mxCell>
        <mxCell id="E84nc0efOehVYlkrJF3X-21" value="" style="edgeStyle=orthogonalEdgeStyle;rounded=0;orthogonalLoop=1;jettySize=auto;html=1;labelBackgroundColor=none;strokeColor=#23445D;fontColor=default;" edge="1" parent="1" source="E84nc0efOehVYlkrJF3X-18" target="E84nc0efOehVYlkrJF3X-20">
          <mxGeometry relative="1" as="geometry" />
        </mxCell>
        <mxCell id="E84nc0efOehVYlkrJF3X-18" value="開始" style="ellipse;whiteSpace=wrap;html=1;labelBackgroundColor=none;fillColor=#182E3E;strokeColor=#FFFFFF;fontColor=#FFFFFF;" vertex="1" parent="1">
          <mxGeometry x="280" y="90" width="120" height="80" as="geometry" />
        </mxCell>
        <mxCell id="E84nc0efOehVYlkrJF3X-27" value="" style="edgeStyle=orthogonalEdgeStyle;rounded=0;orthogonalLoop=1;jettySize=auto;html=1;labelBackgroundColor=none;strokeColor=#23445D;fontColor=default;" edge="1" parent="1" source="E84nc0efOehVYlkrJF3X-20" target="E84nc0efOehVYlkrJF3X-26">
          <mxGeometry relative="1" as="geometry" />
        </mxCell>
        <mxCell id="E84nc0efOehVYlkrJF3X-20" value="啟動相機" style="whiteSpace=wrap;html=1;labelBackgroundColor=none;fillColor=#182E3E;strokeColor=#FFFFFF;fontColor=#FFFFFF;" vertex="1" parent="1">
          <mxGeometry x="280" y="200" width="120" height="60" as="geometry" />
        </mxCell>
        <mxCell id="E84nc0efOehVYlkrJF3X-28" value="" style="edgeStyle=orthogonalEdgeStyle;rounded=0;orthogonalLoop=1;jettySize=auto;html=1;labelBackgroundColor=none;strokeColor=#23445D;fontColor=default;" edge="1" parent="1" source="E84nc0efOehVYlkrJF3X-26" target="o90tf0dQoTygKEmvJ2A5-5">
          <mxGeometry relative="1" as="geometry" />
        </mxCell>
        <mxCell id="E84nc0efOehVYlkrJF3X-26" value="掃描圖像" style="whiteSpace=wrap;html=1;labelBackgroundColor=none;fillColor=#182E3E;strokeColor=#FFFFFF;fontColor=#FFFFFF;" vertex="1" parent="1">
          <mxGeometry x="280" y="290" width="120" height="60" as="geometry" />
        </mxCell>
        <mxCell id="E84nc0efOehVYlkrJF3X-30" style="edgeStyle=orthogonalEdgeStyle;rounded=0;orthogonalLoop=1;jettySize=auto;html=1;entryX=-0.008;entryY=0.383;entryDx=0;entryDy=0;entryPerimeter=0;labelBackgroundColor=none;strokeColor=#23445D;fontColor=default;" edge="1" parent="1" source="o90tf0dQoTygKEmvJ2A5-5" target="E84nc0efOehVYlkrJF3X-26">
          <mxGeometry relative="1" as="geometry">
            <Array as="points">
              <mxPoint x="250" y="433" />
              <mxPoint x="250" y="313" />
            </Array>
          </mxGeometry>
        </mxCell>
        <mxCell id="E84nc0efOehVYlkrJF3X-33" value="否" style="edgeLabel;html=1;align=center;verticalAlign=middle;resizable=0;points=[];strokeColor=#FFFFFF;fontColor=#1A1A1A;fillColor=#182E3E;" vertex="1" connectable="0" parent="E84nc0efOehVYlkrJF3X-30">
          <mxGeometry x="-0.2803" y="2" relative="1" as="geometry">
            <mxPoint y="1" as="offset" />
          </mxGeometry>
        </mxCell>
        <mxCell id="E84nc0efOehVYlkrJF3X-31" value="第一關流程圖" style="text;html=1;align=center;verticalAlign=middle;whiteSpace=wrap;rounded=0;labelBackgroundColor=none;fontColor=#1A1A1A;fillColor=#FFFFFF;strokeColor=#1A1A1A;" vertex="1" parent="1">
          <mxGeometry x="140" y="30" width="100" height="30" as="geometry" />
        </mxCell>
      </root>
    </mxGraphModel>
  </diagram>
</mxfile>
